<!--?xml version="1.0" encoding="UTF-8" standalone="no"?-->
<svg viewport-fill="#282828" xmlns:dc="http://purl.org/dc/elements/1.1/" xmlns:cc="http://creativecommons.org/ns#" xmlns:rdf="http://www.w3.org/1999/02/22-rdf-syntax-ns#" xmlns:svg="http://www.w3.org/2000/svg" xmlns="http://www.w3.org/2000/svg" xmlns:xlink="http://www.w3.org/1999/xlink" id="svg309910" viewBox="0 0 1024 768" height="768px" width="1024px" version="1.1">
  
  <defs id="defs309914"></defs>
  <style><![CDATA[  #title path, #title polygon{ fill: #ffffff !important; } #tagline path, #tagline polygon{ fill: #ffffff !important; }  #icon *{ fill: #a7a7a7 !important; }  #logo-group > rect { fill-opacity: 0; } ]]> </style><g id="logo-group"><rect x="0" y="0" width="1024" height="768" style="fill: #282828" />
    <g id="icon" transform="translate(0 294.21587499999924) translate(476.23323571428654 28.765625000001464) scale(1.4285714285714) translate(-497.375 51.1875)"><svg x="485.909" y="-65.9295" width="81.89999999999999" height="81.89999999999999" viewBox="0 0 90 90"><title>Shape 026</title><path d="M45,16.52,12.83,72.23H77.17Zm0,5L72.83,69.73H72.7L45,54.66,17.3,69.73h-.13Z"></path></svg></g>
    <g id="title" style="font-style:normal;font-weight:700;font-size:72px;line-height:1;font-family:'Roboto Condensed';font-variant-ligatures:none;text-align:center;text-anchor:middle" aria-label="NOGADEV">
      <path id="path309918" style="font-style: normal; font-weight: 700; font-size: 72px; line-height: 1; font-family: &quot;Roboto Condensed&quot;; font-variant-ligatures: none; text-align: center; text-anchor: middle; fill: rgb(255, 255, 255);" d="M 406.70703,0 H 396.37109 L 381.25391,-33.574219 V 0 h -10.33594 v -51.1875 h 10.33594 l 15.15234,33.609375 V -51.1875 h 10.30078 z" transform="translate(0 294.21587499999924) translate(188.43747857143518 28.765625000001464) scale(1.4285714285714) translate(-370.91797 51.1875)"></path>
      <path id="path309920" style="font-style: normal; font-weight: 700; font-size: 72px; line-height: 1; font-family: &quot;Roboto Condensed&quot;; font-variant-ligatures: none; text-align: center; text-anchor: middle; fill: rgb(255, 255, 255);" d="m 451.10937,-20.988281 q 0,10.300781 -4.88671,15.9960935 -4.85157,5.6953125 -13.5,5.6953125 -8.61329,0 -13.53516,-5.625 -4.92188,-5.660156 -4.99219,-15.820312 v -8.753907 q 0,-10.546875 4.88672,-16.453125 4.88672,-5.941406 13.57031,-5.941406 8.54297,0 13.46485,5.835938 4.92187,5.800781 4.99218,16.3125 z m -10.37109,-8.578125 q 0,-6.925781 -1.96875,-10.300781 -1.96875,-3.375 -6.11719,-3.375 -4.11328,0 -6.08203,3.269531 -1.96875,3.234375 -2.03906,9.878906 v 9.105469 q 0,6.714843 2.00391,9.914062 2.0039,3.1640628 6.1875,3.1640628 4.04296,0 6.01171,-3.0937498 1.96875,-3.128907 2.00391,-9.667969 z" transform="translate(0 294.21587499999924) translate(285.9765357142903 27.7611607142872) scale(1.4285714285714) translate(-414.19531 51.890625)"></path>
      <path id="path309922" style="font-style: normal; font-weight: 700; font-size: 72px; line-height: 1; font-family: &quot;Roboto Condensed&quot;; font-variant-ligatures: none; text-align: center; text-anchor: middle; fill: rgb(255, 255, 255);" d="m 493.33203,-5.8007812 q -2.98828,3.2343749 -7.34766,4.8867187 -4.32421,1.6171875 -9.49218,1.6171875 -8.82422,0 -13.71094,-5.4492187 -4.88672,-5.4843753 -5.02734,-15.9257813 v -9.210937 q 0,-10.582032 4.60546,-16.277344 4.64063,-5.730469 13.5,-5.730469 8.33204,0 12.55079,4.113281 4.2539,4.113282 4.92187,12.902344 h -10.05469 q -0.42187,-4.886719 -2.03906,-6.644531 -1.61719,-1.792969 -5.0625,-1.792969 -4.18359,0 -6.08203,3.058594 -1.89844,3.058594 -1.96875,9.738281 v 9.28125 q 0,6.996094 2.07422,10.195312 2.10937,3.164063 6.89062,3.164063 3.0586,0 4.95703,-1.2304688 l 0.91407,-0.6328125 V -19.125 h -7.24219 v -7.804687 h 17.61328 z" transform="translate(0 294.21587499999924) translate(383.91739285714556 27.7611607142872) scale(1.4285714285714) translate(-457.75391 51.890625)"></path>
      <path id="path309924" style="font-style: normal; font-weight: 700; font-size: 72px; line-height: 1; font-family: &quot;Roboto Condensed&quot;; font-variant-ligatures: none; text-align: center; text-anchor: middle; fill: rgb(255, 255, 255); display: none;" d="M 525.14844,-10.476563 H 511.05078 L 508.30859,0 H 497.375 l 15.99609,-51.1875 h 9.45703 L 538.92969,0 h -11.03907 z m -11.84766,-8.613281 h 9.5625 l -4.78125,-18.246093 z"></path>
      <path id="path309926" style="font-style: normal; font-weight: 700; font-size: 72px; line-height: 1; font-family: &quot;Roboto Condensed&quot;; font-variant-ligatures: none; text-align: center; text-anchor: middle; fill: rgb(255, 255, 255);" d="m 543.74609,0 v -51.1875 h 13.53516 q 8.96484,0 14.27344,5.695313 5.34375,5.695312 5.44922,15.609375 v 8.296875 q 0,10.089843 -5.34375,15.8554683 Q 566.35156,0 557,0 Z m 10.33594,-42.574219 v 33.996094 h 3.09375 q 5.16797,0 7.27734,-2.707031 2.10938,-2.742188 2.21485,-9.421875 v -8.894531 q 0,-7.171875 -2.00391,-9.984375 -2.0039,-2.847657 -6.82031,-2.988282 z" transform="translate(0 294.21587499999924) translate(603.068092857141 28.765625000001464) scale(1.4285714285714) translate(-543.74609 51.1875)"></path>
      <path id="path309928" style="font-style: normal; font-weight: 700; font-size: 72px; line-height: 1; font-family: &quot;Roboto Condensed&quot;; font-variant-ligatures: none; text-align: center; text-anchor: middle; fill: rgb(255, 255, 255);" d="m 610.82422,-22.148437 h -16.10156 v 13.570312 h 19.05468 V 0 h -29.39062 v -51.1875 h 29.32031 v 8.613281 h -18.98437 v 12.09375 h 16.10156 z" transform="translate(0 294.21587499999924) translate(696.8404214285677 28.765625000001464) scale(1.4285714285714) translate(-584.38672 51.1875)"></path>
      <path id="path309930" style="font-style: normal; font-weight: 700; font-size: 72px; line-height: 1; font-family: &quot;Roboto Condensed&quot;; font-variant-ligatures: none; text-align: center; text-anchor: middle; fill: rgb(255, 255, 255);" d="m 636.34766,-14.0625 8.61328,-37.125 h 11.53125 L 641.72656,0 h -10.75781 l -14.66016,-51.1875 h 11.46094 z" transform="translate(0 294.21587499999924) translate(778.1573785714231 28.765625000001464) scale(1.4285714285714) translate(-616.30859 51.1875)"></path>
    </g>
    <g id="tagline" style="font-style:normal;font-weight:normal;font-size:32px;line-height:1;font-family:Montserrat;font-variant-ligatures:none;text-align:center;text-anchor:middle" aria-label="Our passion is your success">
      <path id="path309933" style="font-style: normal; font-weight: normal; font-size: 32px; line-height: 1; font-family: Montserrat; font-variant-ligatures: none; text-align: center; text-anchor: middle; fill: rgb(255, 255, 255);" d="m 313.742,-22.592 q 3.232,0 5.92,1.504 2.72,1.504 4.288,4.128 1.568,2.592 1.568,5.728 0,3.136 -1.568,5.792 -1.568,2.624 -4.288,4.16 -2.688,1.504 -5.92,1.504 -3.232,0 -5.952,-1.504 -2.688,-1.536 -4.256,-4.16 -1.568,-2.656 -1.568,-5.792 0,-3.136 1.568,-5.728 1.568,-2.624 4.256,-4.128 2.688,-1.504 5.952,-1.504 z m 0.032,2.752 q -2.336,0 -4.352,1.152 -1.984,1.152 -3.168,3.136 -1.184,1.952 -1.184,4.32 0,2.368 1.184,4.352 1.184,1.984 3.168,3.168 2.016,1.152 4.352,1.152 2.336,0 4.288,-1.152 1.984,-1.184 3.136,-3.168 1.184,-1.984 1.184,-4.352 0,-2.368 -1.184,-4.32 -1.152,-1.984 -3.136,-3.136 -1.952,-1.152 -4.288,-1.152 z" transform="translate(0 367.5909642857135) translate(354.41375000000005 56.736) scale(0.75) translate(-301.966 22.592)"></path>
      <path id="path309935" style="font-style: normal; font-weight: normal; font-size: 32px; line-height: 1; font-family: Montserrat; font-variant-ligatures: none; text-align: center; text-anchor: middle; fill: rgb(255, 255, 255);" d="M 344.638,-16.928 V 0 h -3.008 v -3.584 q -1.664,3.616 -6.272,3.68 -2.944,0 -4.608,-1.728 -1.664,-1.76 -1.664,-4.832 v -10.464 h 3.008 v 9.664 q 0,2.144 1.152,3.36 1.184,1.184 3.232,1.184 2.368,-0.032 3.744,-1.664 1.408,-1.664 1.408,-4.224 v -8.32 z" transform="translate(0 367.5909642857135) translate(374.75375 60.984) scale(0.75) translate(-329.086 16.928)"></path>
      <path id="path309937" style="font-style: normal; font-weight: normal; font-size: 32px; line-height: 1; font-family: Montserrat; font-variant-ligatures: none; text-align: center; text-anchor: middle; fill: rgb(255, 255, 255);" d="m 353.388,-13.28 q 0.832,-1.824 2.368,-2.752 1.536,-0.96 3.648,-0.992 v 2.88 q -2.592,-0.096 -4.192,1.344 -1.6,1.44 -1.824,3.872 V 0 h -2.976 v -16.928 h 2.976 z" transform="translate(0 367.5909642857135) translate(390.74825 60.912) scale(0.75) translate(-350.412 17.024)"></path>
      <path id="path309939" style="font-style: normal; font-weight: normal; font-size: 32px; line-height: 1; font-family: Montserrat; font-variant-ligatures: none; text-align: center; text-anchor: middle; fill: rgb(255, 255, 255);" d="m 380.445,-17.024 q 2.368,0 4.224,1.088 1.856,1.088 2.88,3.04 1.024,1.952 1.024,4.48 0,2.496 -1.024,4.448 -0.992,1.92 -2.848,3.008 -1.824,1.056 -4.192,1.056 -2.144,0 -3.776,-0.896 -1.632,-0.896 -2.56,-2.56 v 9.568 h -2.976 v -23.136 h 2.976 v 3.36 q 0.928,-1.664 2.528,-2.56 1.632,-0.896 3.744,-0.896 z m -0.576,14.528 q 1.632,0 2.912,-0.768 1.312,-0.768 2.016,-2.144 0.736,-1.376 0.736,-3.104 0,-1.696 -0.736,-3.072 -0.736,-1.376 -2.016,-2.144 -1.28,-0.768 -2.912,-0.768 -1.632,0 -2.944,0.768 -1.28,0.768 -2.016,2.144 -0.736,1.376 -0.736,3.072 0,1.76 0.736,3.136 0.736,1.344 2.016,2.112 1.312,0.768 2.944,0.768 z" transform="translate(0 367.5909642857135) translate(406.337 60.912) scale(0.75) translate(-371.197 17.024)"></path>
      <path id="path309941" style="font-style: normal; font-weight: normal; font-size: 32px; line-height: 1; font-family: Montserrat; font-variant-ligatures: none; text-align: center; text-anchor: middle; fill: rgb(255, 255, 255);" d="m 403.0605,0 v -2.368 q -1.888,2.496 -5.92,2.496 -1.76,0 -3.104,-0.672 -1.312,-0.672 -2.048,-1.856 -0.704,-1.184 -0.704,-2.656 0,-2.272 1.664,-3.584 1.696,-1.344 4.704,-1.376 h 5.376 v -0.8 q 0,-1.792 -1.12,-2.752 -1.088,-0.992 -3.2,-0.992 -2.56,0 -5.216,1.824 l -1.248,-2.048 q 1.824,-1.184 3.36,-1.696 1.568,-0.544 3.712,-0.544 3.168,0 4.896,1.568 1.728,1.536 1.76,4.32 L 406.0045,0 Z m -5.312,-2.336 q 2.08,0 3.52,-0.992 1.472,-1.024 1.76,-2.688 v -1.696 h -4.96 q -2.016,0 -3.008,0.608 -0.96,0.608 -0.96,1.92 0,1.312 0.992,2.08 0.992,0.768 2.656,0.768 z" transform="translate(0 367.5909642857135) translate(421.40262499999994 60.912) scale(0.75) translate(-391.2845 17.024)"></path>
      <path id="path309943" style="font-style: normal; font-weight: normal; font-size: 32px; line-height: 1; font-family: Montserrat; font-variant-ligatures: none; text-align: center; text-anchor: middle; fill: rgb(255, 255, 255);" d="m 420.535,-13.184 q -1.056,-0.64 -2.336,-1.024 -1.248,-0.384 -2.4,-0.384 -1.344,0 -2.176,0.512 -0.8,0.48 -0.8,1.504 0,1.024 0.896,1.568 0.928,0.512 2.784,1.056 1.76,0.512 2.88,1.024 1.12,0.512 1.888,1.504 0.8,0.992 0.8,2.624 0,2.4 -1.824,3.648 -1.792,1.248 -4.48,1.248 -1.888,0 -3.68,-0.608 -1.76,-0.608 -2.976,-1.728 l 1.12,-2.176 q 1.056,0.96 2.592,1.536 1.568,0.576 3.04,0.576 1.472,0 2.368,-0.544 0.896,-0.544 0.896,-1.664 0,-1.152 -0.96,-1.728 -0.928,-0.576 -2.848,-1.152 -1.696,-0.48 -2.784,-0.96 -1.056,-0.512 -1.824,-1.472 -0.736,-0.96 -0.736,-2.496 0,-2.368 1.728,-3.552 1.728,-1.184 4.32,-1.184 1.536,0 3.008,0.448 1.504,0.416 2.592,1.152 z" transform="translate(0 367.5909642857135) translate(434.7724999999999 60.888) scale(0.75) translate(-409.111 17.056)"></path>
      <path id="path309945" style="font-style: normal; font-weight: normal; font-size: 32px; line-height: 1; font-family: Montserrat; font-variant-ligatures: none; text-align: center; text-anchor: middle; fill: rgb(255, 255, 255);" d="m 435.285,-13.184 q -1.056,-0.64 -2.336,-1.024 -1.248,-0.384 -2.4,-0.384 -1.344,0 -2.176,0.512 -0.8,0.48 -0.8,1.504 0,1.024 0.896,1.568 0.928,0.512 2.784,1.056 1.76,0.512 2.88,1.024 1.12,0.512 1.888,1.504 0.8,0.992 0.8,2.624 0,2.4 -1.824,3.648 -1.792,1.248 -4.48,1.248 -1.888,0 -3.68,-0.608 -1.76,-0.608 -2.976,-1.728 l 1.12,-2.176 q 1.056,0.96 2.592,1.536 1.568,0.576 3.04,0.576 1.472,0 2.368,-0.544 0.896,-0.544 0.896,-1.664 0,-1.152 -0.96,-1.728 -0.928,-0.576 -2.848,-1.152 -1.696,-0.48 -2.784,-0.96 -1.056,-0.512 -1.824,-1.472 -0.736,-0.96 -0.736,-2.496 0,-2.368 1.728,-3.552 1.728,-1.184 4.32,-1.184 1.536,0 3.008,0.448 1.504,0.416 2.592,1.152 z" transform="translate(0 367.5909642857135) translate(445.835 60.888) scale(0.75) translate(-423.861 17.056)"></path>
      <path id="path309947" style="font-style: normal; font-weight: normal; font-size: 32px; line-height: 1; font-family: Montserrat; font-variant-ligatures: none; text-align: center; text-anchor: middle; fill: rgb(255, 255, 255);" d="m 440.787,-16.928 h 2.976 V 0 h -2.976 z m 1.472,-6.752 q 0.8,0 1.312,0.544 0.544,0.544 0.544,1.376 0,0.832 -0.544,1.376 -0.512,0.544 -1.312,0.544 -0.8,0 -1.344,-0.544 -0.512,-0.544 -0.512,-1.376 0,-0.832 0.512,-1.376 0.544,-0.544 1.344,-0.544 z" transform="translate(0 367.5909642857135) translate(458.24150000000003 55.92) scale(0.75) translate(-440.403 23.68)"></path>
      <path id="path309949" style="font-style: normal; font-weight: normal; font-size: 32px; line-height: 1; font-family: Montserrat; font-variant-ligatures: none; text-align: center; text-anchor: middle; fill: rgb(255, 255, 255);" d="m 456.577,-17.024 q 2.528,0 4.48,1.088 1.984,1.088 3.072,3.04 1.12,1.92 1.12,4.416 0,2.496 -1.12,4.448 -1.088,1.952 -3.072,3.04 -1.952,1.088 -4.48,1.088 -2.56,0 -4.544,-1.088 -1.952,-1.088 -3.072,-3.008 -1.088,-1.952 -1.088,-4.48 0,-2.496 1.088,-4.416 1.12,-1.952 3.072,-3.04 1.984,-1.088 4.544,-1.088 z m 0,2.592 q -1.664,0 -2.976,0.768 -1.28,0.768 -2.016,2.144 -0.704,1.344 -0.704,3.072 0,1.76 0.704,3.136 0.736,1.376 2.016,2.144 1.312,0.736 2.976,0.736 1.632,0 2.912,-0.736 1.312,-0.768 2.016,-2.144 0.736,-1.376 0.736,-3.136 0,-1.728 -0.736,-3.072 -0.704,-1.376 -2.016,-2.144 -1.28,-0.768 -2.912,-0.768 z" transform="translate(0 367.5909642857135) translate(463.844 60.912) scale(0.75) translate(-447.873 17.024)"></path>
      <path id="path309951" style="font-style: normal; font-weight: normal; font-size: 32px; line-height: 1; font-family: Montserrat; font-variant-ligatures: none; text-align: center; text-anchor: middle; fill: rgb(255, 255, 255);" d="m 478.82,-17.024 q 2.976,0 4.672,1.76 1.696,1.728 1.696,4.8 V 0 h -2.976 v -9.664 q 0,-2.144 -1.216,-3.328 -1.184,-1.216 -3.296,-1.216 -2.272,0.032 -3.712,1.472 -1.408,1.408 -1.6,3.68 V 0 h -2.976 v -16.928 h 2.976 v 3.584 q 1.696,-3.616 6.432,-3.68 z" transform="translate(0 367.5909642857135) translate(479.99825 60.912) scale(0.75) translate(-469.412 17.024)"></path>
      <path id="path309953" style="font-style: normal; font-weight: normal; font-size: 32px; line-height: 1; font-family: Montserrat; font-variant-ligatures: none; text-align: center; text-anchor: middle; fill: rgb(255, 255, 255);" d="m 498.8495,-16.928 h 2.976 V 0 h -2.976 z m 1.472,-6.752 q 0.8,0 1.312,0.544 0.544,0.544 0.544,1.376 0,0.832 -0.544,1.376 -0.512,0.544 -1.312,0.544 -0.8,0 -1.344,-0.544 -0.512,-0.544 -0.512,-1.376 0,-0.832 0.512,-1.376 0.544,-0.544 1.344,-0.544 z" transform="translate(0 367.5909642857135) translate(501.788375 55.92) scale(0.75) translate(-498.4655 23.68)"></path>
      <path id="path309955" style="font-style: normal; font-weight: normal; font-size: 32px; line-height: 1; font-family: Montserrat; font-variant-ligatures: none; text-align: center; text-anchor: middle; fill: rgb(255, 255, 255);" d="m 516.8475,-13.184 q -1.056,-0.64 -2.336,-1.024 -1.248,-0.384 -2.4,-0.384 -1.344,0 -2.176,0.512 -0.8,0.48 -0.8,1.504 0,1.024 0.896,1.568 0.928,0.512 2.784,1.056 1.76,0.512 2.88,1.024 1.12,0.512 1.888,1.504 0.8,0.992 0.8,2.624 0,2.4 -1.824,3.648 -1.792,1.248 -4.48,1.248 -1.888,0 -3.68,-0.608 -1.76,-0.608 -2.976,-1.728 l 1.12,-2.176 q 1.056,0.96 2.592,1.536 1.568,0.576 3.04,0.576 1.472,0 2.368,-0.544 0.896,-0.544 0.896,-1.664 0,-1.152 -0.96,-1.728 -0.928,-0.576 -2.848,-1.152 -1.696,-0.48 -2.784,-0.96 -1.056,-0.512 -1.824,-1.472 -0.736,-0.96 -0.736,-2.496 0,-2.368 1.728,-3.552 1.728,-1.184 4.32,-1.184 1.536,0 3.008,0.448 1.504,0.416 2.592,1.152 z" transform="translate(0 367.5909642857135) translate(507.0068749999999 60.888) scale(0.75) translate(-505.4235 17.056)"></path>
      <path id="path309957" style="font-style: normal; font-weight: normal; font-size: 32px; line-height: 1; font-family: Montserrat; font-variant-ligatures: none; text-align: center; text-anchor: middle; fill: rgb(255, 255, 255);" d="m 536.6445,2.4 q -0.8,1.952 -2.144,2.944 -1.312,0.992 -3.104,0.992 -1.088,0 -1.984,-0.32 -0.896,-0.32 -1.728,-0.992 l 1.28,-2.336 q 1.12,0.8 2.272,0.8 1.92,0 2.88,-2.176 l 0.64,-1.504 -7.008,-16.736 h 3.136 l 5.376,13.568 5.088,-13.568 h 3.04 z" transform="translate(0 367.5909642857135) translate(523.7026249999999 60.984) scale(0.75) translate(-527.6845 16.928)"></path>
      <path id="path309959" style="font-style: normal; font-weight: normal; font-size: 32px; line-height: 1; font-family: Montserrat; font-variant-ligatures: none; text-align: center; text-anchor: middle; fill: rgb(255, 255, 255);" d="m 553.6395,-17.024 q 2.528,0 4.48,1.088 1.984,1.088 3.072,3.04 1.12,1.92 1.12,4.416 0,2.496 -1.12,4.448 -1.088,1.952 -3.072,3.04 -1.952,1.088 -4.48,1.088 -2.56,0 -4.544,-1.088 -1.952,-1.088 -3.072,-3.008 -1.088,-1.952 -1.088,-4.48 0,-2.496 1.088,-4.416 1.12,-1.952 3.072,-3.04 1.984,-1.088 4.544,-1.088 z m 0,2.592 q -1.664,0 -2.976,0.768 -1.28,0.768 -2.016,2.144 -0.704,1.344 -0.704,3.072 0,1.76 0.704,3.136 0.736,1.376 2.016,2.144 1.312,0.736 2.976,0.736 1.632,0 2.912,-0.736 1.312,-0.768 2.016,-2.144 0.736,-1.376 0.736,-3.136 0,-1.728 -0.736,-3.072 -0.704,-1.376 -2.016,-2.144 -1.28,-0.768 -2.912,-0.768 z" transform="translate(0 367.5909642857135) translate(536.640875 60.912) scale(0.75) translate(-544.9355 17.024)"></path>
      <path id="path309961" style="font-style: normal; font-weight: normal; font-size: 32px; line-height: 1; font-family: Montserrat; font-variant-ligatures: none; text-align: center; text-anchor: middle; fill: rgb(255, 255, 255);" d="M 581.4505,-16.928 V 0 h -3.008 v -3.584 q -1.664,3.616 -6.272,3.68 -2.944,0 -4.608,-1.728 -1.664,-1.76 -1.664,-4.832 v -10.464 h 3.008 v 9.664 q 0,2.144 1.152,3.36 1.184,1.184 3.232,1.184 2.368,-0.032 3.744,-1.664 1.408,-1.664 1.408,-4.224 v -8.32 z" transform="translate(0 367.5909642857135) translate(552.3631250000001 60.984) scale(0.75) translate(-565.8985 16.928)"></path>
      <path id="path309963" style="font-style: normal; font-weight: normal; font-size: 32px; line-height: 1; font-family: Montserrat; font-variant-ligatures: none; text-align: center; text-anchor: middle; fill: rgb(255, 255, 255);" d="m 590.2005,-13.28 q 0.832,-1.824 2.368,-2.752 1.536,-0.96 3.648,-0.992 v 2.88 q -2.592,-0.096 -4.192,1.344 -1.6,1.44 -1.824,3.872 V 0 h -2.976 v -16.928 h 2.976 z" transform="translate(0 367.5909642857135) translate(568.3576250000001 60.912) scale(0.75) translate(-587.2245 17.024)"></path>
      <path id="path309965" style="font-style: normal; font-weight: normal; font-size: 32px; line-height: 1; font-family: Montserrat; font-variant-ligatures: none; text-align: center; text-anchor: middle; fill: rgb(255, 255, 255);" d="m 617.0975,-13.184 q -1.056,-0.64 -2.336,-1.024 -1.248,-0.384 -2.4,-0.384 -1.344,0 -2.176,0.512 -0.8,0.48 -0.8,1.504 0,1.024 0.896,1.568 0.928,0.512 2.784,1.056 1.76,0.512 2.88,1.024 1.12,0.512 1.888,1.504 0.8,0.992 0.8,2.624 0,2.4 -1.824,3.648 -1.792,1.248 -4.48,1.248 -1.888,0 -3.68,-0.608 -1.76,-0.608 -2.976,-1.728 l 1.12,-2.176 q 1.056,0.96 2.592,1.536 1.568,0.576 3.04,0.576 1.472,0 2.368,-0.544 0.896,-0.544 0.896,-1.664 0,-1.152 -0.96,-1.728 -0.928,-0.576 -2.848,-1.152 -1.696,-0.48 -2.784,-0.96 -1.056,-0.512 -1.824,-1.472 -0.736,-0.96 -0.736,-2.496 0,-2.368 1.728,-3.552 1.728,-1.184 4.32,-1.184 1.536,0 3.008,0.448 1.504,0.416 2.592,1.152 z" transform="translate(0 367.5909642857135) translate(582.1943750000002 60.888) scale(0.75) translate(-605.6735 17.056)"></path>
      <path id="path309967" style="font-style: normal; font-weight: normal; font-size: 32px; line-height: 1; font-family: Montserrat; font-variant-ligatures: none; text-align: center; text-anchor: middle; fill: rgb(255, 255, 255);" d="M 637.5755,-16.928 V 0 h -3.008 v -3.584 q -1.664,3.616 -6.272,3.68 -2.944,0 -4.608,-1.728 -1.664,-1.76 -1.664,-4.832 v -10.464 h 3.008 v 9.664 q 0,2.144 1.152,3.36 1.184,1.184 3.232,1.184 2.368,-0.032 3.744,-1.664 1.408,-1.664 1.408,-4.224 v -8.32 z" transform="translate(0 367.5909642857135) translate(594.4568750000002 60.984) scale(0.75) translate(-622.0235 16.928)"></path>
      <path id="path309969" style="font-style: normal; font-weight: normal; font-size: 32px; line-height: 1; font-family: Montserrat; font-variant-ligatures: none; text-align: center; text-anchor: middle; fill: rgb(255, 255, 255);" d="m 655.2215,-12.416 q -2.016,-1.952 -4.832,-1.952 -1.664,0 -2.976,0.736 -1.28,0.736 -2.016,2.08 -0.736,1.344 -0.736,3.104 0,1.76 0.704,3.104 0.736,1.344 1.984,2.112 1.28,0.736 2.912,0.736 1.632,0 2.944,-0.544 1.312,-0.544 2.176,-1.568 l 1.696,1.728 q -1.152,1.44 -2.944,2.208 -1.76,0.768 -4,0.768 -2.464,0 -4.384,-1.088 -1.92,-1.088 -3.008,-3.008 -1.056,-1.952 -1.056,-4.448 0,-2.496 1.056,-4.448 1.088,-1.952 3.008,-3.04 1.92,-1.088 4.384,-1.088 2.144,0 3.84,0.672 1.728,0.64 2.88,1.888 z" transform="translate(0 367.5909642857135) translate(609.2033750000002 60.912) scale(0.75) translate(-641.6855 17.024)"></path>
      <path id="path309971" style="font-style: normal; font-weight: normal; font-size: 32px; line-height: 1; font-family: Montserrat; font-variant-ligatures: none; text-align: center; text-anchor: middle; fill: rgb(255, 255, 255);" d="m 672.4715,-12.416 q -2.016,-1.952 -4.832,-1.952 -1.664,0 -2.976,0.736 -1.28,0.736 -2.016,2.08 -0.736,1.344 -0.736,3.104 0,1.76 0.704,3.104 0.736,1.344 1.984,2.112 1.28,0.736 2.912,0.736 1.632,0 2.944,-0.544 1.312,-0.544 2.176,-1.568 l 1.696,1.728 q -1.152,1.44 -2.944,2.208 -1.76,0.768 -4,0.768 -2.464,0 -4.384,-1.088 -1.92,-1.088 -3.008,-3.008 -1.056,-1.952 -1.056,-4.448 0,-2.496 1.056,-4.448 1.088,-1.952 3.008,-3.04 1.92,-1.088 4.384,-1.088 2.144,0 3.84,0.672 1.728,0.64 2.88,1.888 z" transform="translate(0 367.5909642857135) translate(622.140875 60.912) scale(0.75) translate(-658.9355 17.024)"></path>
      <path id="path309973" style="font-style: normal; font-weight: normal; font-size: 32px; line-height: 1; font-family: Montserrat; font-variant-ligatures: none; text-align: center; text-anchor: middle; fill: rgb(255, 255, 255);" d="m 684.6335,-17.024 q 3.936,0 5.952,2.336 2.016,2.304 2.016,6.432 0,0.64 -0.032,0.96 h -13.376 q 0.352,2.272 1.888,3.616 1.568,1.344 3.84,1.344 1.504,0 2.784,-0.544 1.312,-0.544 2.272,-1.536 l 1.632,1.696 q -1.248,1.344 -3.008,2.08 -1.76,0.736 -3.904,0.736 -2.496,0 -4.448,-1.056 -1.92,-1.088 -3.008,-3.04 -1.056,-1.952 -1.056,-4.448 0,-2.496 1.056,-4.416 1.088,-1.952 3.008,-3.04 1.92,-1.12 4.384,-1.12 z m 5.28,7.424 q -0.128,-2.304 -1.536,-3.616 -1.408,-1.344 -3.712,-1.344 -2.24,0 -3.744,1.344 -1.472,1.344 -1.76,3.616 z" transform="translate(0 367.5909642857135) translate(635.078375 60.912) scale(0.75) translate(-676.1855 17.024)"></path>
      <path id="path309975" style="font-style: normal; font-weight: normal; font-size: 32px; line-height: 1; font-family: Montserrat; font-variant-ligatures: none; text-align: center; text-anchor: middle; fill: rgb(255, 255, 255);" d="m 705.91,-13.184 q -1.056,-0.64 -2.336,-1.024 -1.248,-0.384 -2.4,-0.384 -1.344,0 -2.176,0.512 -0.8,0.48 -0.8,1.504 0,1.024 0.896,1.568 0.928,0.512 2.784,1.056 1.76,0.512 2.88,1.024 1.12,0.512 1.888,1.504 0.8,0.992 0.8,2.624 0,2.4 -1.824,3.648 -1.792,1.248 -4.48,1.248 -1.888,0 -3.68,-0.608 -1.76,-0.608 -2.976,-1.728 l 1.12,-2.176 q 1.056,0.96 2.592,1.536 1.568,0.576 3.04,0.576 1.472,0 2.368,-0.544 0.896,-0.544 0.896,-1.664 0,-1.152 -0.96,-1.728 -0.928,-0.576 -2.848,-1.152 -1.696,-0.48 -2.784,-0.96 -1.056,-0.512 -1.824,-1.472 -0.736,-0.96 -0.736,-2.496 0,-2.368 1.728,-3.552 1.728,-1.184 4.32,-1.184 1.536,0 3.008,0.448 1.504,0.416 2.592,1.152 z" transform="translate(0 367.5909642857135) translate(648.80375 60.888) scale(0.75) translate(-694.486 17.056)"></path>
      <path id="path309977" style="font-style: normal; font-weight: normal; font-size: 32px; line-height: 1; font-family: Montserrat; font-variant-ligatures: none; text-align: center; text-anchor: middle; fill: rgb(255, 255, 255);" d="m 720.66,-13.184 q -1.056,-0.64 -2.336,-1.024 -1.248,-0.384 -2.4,-0.384 -1.344,0 -2.176,0.512 -0.8,0.48 -0.8,1.504 0,1.024 0.896,1.568 0.928,0.512 2.784,1.056 1.76,0.512 2.88,1.024 1.12,0.512 1.888,1.504 0.8,0.992 0.8,2.624 0,2.4 -1.824,3.648 -1.792,1.248 -4.48,1.248 -1.888,0 -3.68,-0.608 -1.76,-0.608 -2.976,-1.728 l 1.12,-2.176 q 1.056,0.96 2.592,1.536 1.568,0.576 3.04,0.576 1.472,0 2.368,-0.544 0.896,-0.544 0.896,-1.664 0,-1.152 -0.96,-1.728 -0.928,-0.576 -2.848,-1.152 -1.696,-0.48 -2.784,-0.96 -1.056,-0.512 -1.824,-1.472 -0.736,-0.96 -0.736,-2.496 0,-2.368 1.728,-3.552 1.728,-1.184 4.32,-1.184 1.536,0 3.008,0.448 1.504,0.416 2.592,1.152 z" transform="translate(0 367.5909642857135) translate(659.86625 60.888) scale(0.75) translate(-709.236 17.056)"></path>
    </g>
  </g>
</svg>
